<?xml version="1.0" encoding="UTF-8"?>
<svg id="Livello_1" data-name="Livello 1" xmlns="http://www.w3.org/2000/svg" xmlns:xlink="http://www.w3.org/1999/xlink" version="1.1" viewBox="0 0 192.1 53.6">
  <defs>
    <style>
      .cls-1 {
        fill: #2a4c40;
      }

      .cls-1, .cls-2, .cls-3, .cls-4, .cls-5, .cls-6 {
        stroke-width: 0px;
      }

      .cls-7 {
        clip-path: url(#clippath);
      }

      .cls-2 {
        fill: none;
      }

      .cls-3 {
        fill: #92c29f;
      }

      .cls-4 {
        fill: #306144;
      }

      .cls-5 {
        fill: #d7e9da;
      }

      .cls-8 {
        clip-path: url(#clippath-1);
      }

      .cls-9 {
        clip-path: url(#clippath-2);
      }

      .cls-6 {
        fill: #469a5b;
      }
    </style>
    <clipPath id="clippath">
      <path class="cls-2" d="M21.9,0C10.3.2.8,9.5.3,21c-.2,5.7,1.8,11,5.2,15.1l12.8,15.1c2,2.4,5.7,2.4,7.7,0l12.8-15.1c3.2-3.8,5.2-8.8,5.2-14.1C44.1,9.7,34.1-.2,21.9,0Z"/>
    </clipPath>
    <clipPath id="clippath-1">
      <path class="cls-2" d="M21.9,0C10.3.2.8,9.5.3,21c-.2,5.7,1.8,11,5.2,15.1l12.8,15.1c2,2.4,5.7,2.4,7.7,0l12.8-15.1c3.2-3.8,5.2-8.8,5.2-14.1C44.1,9.7,34.1-.2,21.9,0Z"/>
    </clipPath>
    <clipPath id="clippath-2">
      <path class="cls-2" d="M21.9,0C10.3.2.8,9.5.3,21c-.2,5.7,1.8,11,5.2,15.1l12.8,15.1c2,2.4,5.7,2.4,7.7,0l12.8-15.1c3.2-3.8,5.2-8.8,5.2-14.1C44.1,9.7,34.1-.2,21.9,0Z"/>
    </clipPath>
  </defs>
  <g>
    <path class="cls-1" d="M71.9,18.2v15.1c0,.8-.7,1.4-1.4,1.4s-1.4-.6-1.4-1.4v-10.8l-3.7,5.1c-.3.4-.7.6-1.1.6h0c-.5,0-.9-.2-1.2-.6l-3.7-5.1v10.8c0,.8-.6,1.4-1.4,1.4s-1.4-.6-1.4-1.4v-15.1c0-.8.6-1.4,1.4-1.4h0c.4,0,.9.2,1.1.6l5.1,7,5.1-7c.3-.4.7-.6,1.1-.6h0c.8,0,1.4.6,1.4,1.4Z"/>
    <path class="cls-1" d="M98.7,19c1.6,1.7,2.6,3.9,2.6,6.5s-1,4.8-2.6,6.5c-1.5,1.7-3.8,2.7-6.1,2.7s-4.7-1.1-6.3-2.7c-1.6-1.7-2.5-3.9-2.5-6.5s.9-4.8,2.5-6.5c1.6-1.7,3.8-2.7,6.3-2.7s4.6,1,6.1,2.7ZM98.4,25.5c0-1.7-.7-3.3-1.7-4.5-1.1-1.1-2.5-1.8-4-1.8s-3.1.7-4.1,1.8c-1.1,1.1-1.7,2.7-1.7,4.5s.7,3.3,1.7,4.4c1.1,1.1,2.5,1.8,4.1,1.8s3-.7,4-1.8c1-1.1,1.7-2.7,1.7-4.4Z"/>
    <path class="cls-1" d="M116.1,33.3c0,.8-.6,1.4-1.4,1.4s-1.4-.6-1.4-1.4v-14.8h0c0-.5.2-.9.6-1.2.6-.4,1.5-.3,1.9.3l8.2,11.4v-10.5c0-.7.6-1.4,1.4-1.4s1.4.6,1.4,1.4v14.8c0,.8-.6,1.4-1.4,1.4s-.8-.2-1-.5c0,0-.1-.1-.1-.2l-8.2-11.3v10.6Z"/>
    <path class="cls-1" d="M140.7,33.3v-15.1c0-.8.6-1.4,1.4-1.4h8.4c.7,0,1.4.6,1.4,1.4s-.7,1.4-1.4,1.4h-6.9v4.7h5.9c.8,0,1.4.7,1.4,1.4s-.6,1.4-1.4,1.4h-5.9v6.1c0,.8-.6,1.4-1.4,1.4s-1.4-.6-1.4-1.4Z"/>
    <path class="cls-1" d="M163.9,18.2c0-.8.6-1.4,1.4-1.4s1.4.6,1.4,1.4v15.1c0,.8-.7,1.4-1.4,1.4s-1.4-.6-1.4-1.4v-15.1Z"/>
    <path class="cls-1" d="M190.2,19.6h-4.1v13.6c0,.8-.6,1.4-1.4,1.4s-1.4-.6-1.4-1.4v-13.6h-4c-.8,0-1.4-.7-1.4-1.4s.6-1.4,1.4-1.4h10.9c.8,0,1.4.6,1.4,1.4s-.6,1.4-1.4,1.4Z"/>
  </g>
  <g>
    <path class="cls-1" d="M56.8,51.7h0c-.1,0-.2-.1-.2-.2v-6.6c0-.1.1-.2.2-.2h1.3c2,0,3.6,1.6,3.6,3.6s-1.6,3.5-3.6,3.5h-1.3ZM58.1,51.2c1.7,0,3.1-1.4,3.1-3s-1.4-3.1-3.1-3.1h-1.1v6.1h1.1Z"/>
    <path class="cls-1" d="M63.8,45.3c0-.1.1-.2.2-.2s.3.1.3.2v.2c0,.1-.1.3-.3.3s-.2-.1-.2-.3v-.2ZM63.8,46.9c0-.1.1-.2.2-.2s.3.1.3.2v4.5c0,.1-.1.2-.3.2s-.2-.1-.2-.2v-4.5Z"/>
    <path class="cls-1" d="M66.3,50.6c0-.1.2-.1.3,0,.3.3.9.6,1.5.6s.7-.1.9-.3c.2-.2.4-.4.4-.6,0-.2-.1-.4-.4-.6-.2-.2-.6-.3-1.1-.4h0c-.4,0-.8-.2-1.1-.4-.3-.2-.5-.5-.5-.9s.2-.7.5-1c.3-.2.7-.3,1.2-.3s1.1.3,1.5.5c.1,0,.1.2,0,.3,0,.1-.2.1-.3,0-.4-.2-.7-.5-1.2-.5s-.7.1-.9.3c-.2.2-.3.4-.3.6s0,.3.3.5c.2.2.6.3,1,.3h0c.5,0,.9.2,1.2.4.3.2.6.6.6,1s-.2.8-.6,1c-.3.3-.8.4-1.2.4-.8,0-1.4-.4-1.8-.7-.1,0-.1-.2,0-.3Z"/>
    <path class="cls-1" d="M71.3,49.2c0-1.4,1.1-2.5,2.6-2.5s1.1.2,1.6.5c.1,0,.1.2,0,.3,0,0-.2.1-.3,0-.4-.3-.8-.4-1.3-.4-1.2,0-2.1.9-2.1,2s.9,2,2.1,2,.9-.2,1.3-.4c.1,0,.3,0,.3,0,0,.1,0,.3,0,.4-.4.3-1,.5-1.6.5-1.4,0-2.6-1.1-2.6-2.5Z"/>
    <path class="cls-1" d="M79.5,46.7c1.3,0,2.4,1.1,2.4,2.5s-1,2.5-2.4,2.5-2.4-1.1-2.4-2.5,1.1-2.5,2.4-2.5ZM79.5,51.2c1,0,1.9-.9,1.9-2s-.9-2-1.9-2-1.9.9-1.9,2,.9,2,1.9,2Z"/>
    <path class="cls-1" d="M85.1,51.6s0,0,0-.1l-1.9-4.4c0-.1,0-.3.1-.3.1,0,.3,0,.3.1l1.7,3.9,1.7-3.9c0-.1.2-.2.3-.1.1,0,.2.2.1.3l-1.9,4.4s0,0,0,.1c0,0-.1,0-.2,0s0,0,0,0t0,0s0,0,0,0Z"/>
    <path class="cls-1" d="M88.8,49.2c0-1.4,1.1-2.5,2.4-2.5s2.3,1,2.4,2.3h0c0,.2-.1.3-.2.3h-4.1c0,1.1.9,1.9,1.9,1.9s1.3-.3,1.6-.9c0-.1.2-.1.3,0,.1,0,.2.2,0,.3-.4.7-1.2,1.1-2,1.1-1.3,0-2.4-1.1-2.4-2.5ZM89.3,48.8h3.8c-.2-.9-1-1.6-1.9-1.6s-1.7.7-1.9,1.6Z"/>
    <path class="cls-1" d="M95.2,46.9c0-.1.1-.2.3-.2s.2.1.2.2v1.1s0,0,0-.1c.4-.6,1-1.2,2-1.2s.2.1.2.2-.1.2-.2.2c-.6,0-1.1.4-1.4.8-.3.4-.5,1-.6,1.2,0,0,0,0,0,0v2.2c0,.1-.1.2-.2.2s-.3-.1-.3-.2v-4.5Z"/>
    <path class="cls-1" d="M99.7,45.3c0-.1.1-.2.2-.2s.3.1.3.2v.2c0,.1-.1.3-.3.3s-.2-.1-.2-.3v-.2ZM99.7,46.9c0-.1.1-.2.2-.2s.3.1.3.2v4.5c0,.1-.1.2-.3.2s-.2-.1-.2-.2v-4.5Z"/>
    <path class="cls-1" d="M106.1,48.7c0-.8-.7-1.5-1.5-1.5s-1.5.7-1.5,1.5v2.7h0c0,0,0,.1,0,.2,0,0-.1,0-.2,0h0c0,0-.1,0-.2-.1,0,0,0,0,0,0s0,0,0,0h0v-2.8h0v-1.8c0-.1.1-.2.2-.2s.2.1.2.2v.5c.4-.4.9-.7,1.5-.7,1.1,0,2,.9,2,2v2.7c0,.1-.1.2-.2.2s-.2-.1-.2-.2v-2.7Z"/>
    <path class="cls-1" d="M113.2,51.3c0,1.3-1,2.3-2.3,2.3s-.7,0-1-.2c-.1,0-.2-.2-.1-.3,0-.1.2-.2.3-.1.3.1.5.2.8.2,1,0,1.9-.8,1.9-1.8v-.6c-.4.6-1.1,1-1.9,1-1.3,0-2.3-1.1-2.3-2.5s1-2.5,2.3-2.5,1.4.4,1.9,1v-.7c0-.1.1-.2.3-.2s.2.1.2.2v4.3ZM112.7,49.2c0-1.1-.8-2-1.9-2s-1.8.9-1.8,2,.8,2,1.8,2,1.9-.9,1.9-2Z"/>
    <path class="cls-1" d="M118.7,49.3h0v-4.5c0-.1.1-.2.2-.2s.3.1.3.2v2.9c.4-.6,1.1-1,1.9-1,1.3,0,2.4,1.1,2.4,2.5s-1.1,2.5-2.4,2.5-1.5-.4-1.9-1v.7c0,.1-.1.2-.3.2s-.2-.1-.2-.2v-2.1ZM119.2,49.2c0,1.1.9,2,1.9,2s1.9-.9,1.9-2-.9-2-1.9-2-1.9.9-1.9,1.9h0Z"/>
    <path class="cls-1" d="M124.7,46.9c0-.1.1-.2.2-.2s.3.1.3.2v2.7c0,.9.7,1.5,1.5,1.5s1.5-.7,1.5-1.5v-2.7s0,0,0-.1c0,0,0,0,0,0,0,0,0,0,0,0,0,0,0,0,0,0h0s0,0,0,0h0s0,0,.1,0c0,0,0,0,0,0,0,0,0,0,0,.1v2.7h0v1.6c0,1.3-1.1,2.3-2.4,2.3s-.7,0-1-.2c-.1,0-.2-.2-.1-.3,0-.1.2-.2.3-.1.2.1.5.2.8.2,1,0,1.9-.8,1.9-1.8v-.3c-.4.4-.9.7-1.5.7-1.1,0-2-.9-2-2v-2.7Z"/>
    <path class="cls-1" d="M135.9,51.6c0,0,0,0-.1-.1l-1.9-4.4c0-.1,0-.3.1-.3.1,0,.3,0,.3.1l1.7,3.9,1.1-2.7c0,0,.1-.2.2-.2s.2,0,.2.2l1.1,2.7,1.6-3.9c0-.1.2-.2.3-.1.1,0,.2.2.1.3l-1.9,4.4c0,0,0,0,0,.1s0,0-.1,0h0c0,0-.2,0-.2-.2h0s-1.2-2.8-1.2-2.8l-1.1,2.7s0,0,0,0c0,0-.1.2-.2.2s0,0,0,0c0,0,0,0,0,0Z"/>
    <path class="cls-1" d="M147,46.9v4.5c0,.1-.1.2-.2.2s-.2-.1-.2-.2v-.7c-.4.6-1.1,1-1.9,1-1.3,0-2.4-1.1-2.4-2.5s1-2.5,2.4-2.5,1.4.4,1.9,1v-.7c0-.1.1-.2.2-.2s.2.1.2.2ZM146.5,49.2c0-1.1-.8-2-1.9-2s-1.9.9-1.9,2,.9,2,1.9,2,1.9-.9,1.9-2Z"/>
    <path class="cls-1" d="M149.4,44.8c0-.1.1-.2.2-.2s.3.1.3.2v6.6c0,.1-.1.2-.3.2s-.2-.1-.2-.2v-6.6Z"/>
    <path class="cls-1" d="M151.9,44.8c0-.1.1-.2.2-.2s.3.1.3.2v4.8l2.9-2.9c.1-.1.2-.1.3,0,.1,0,.1.2,0,.3l-1.9,1.9,1.9,2.3c0,.1,0,.3,0,.4,0,0-.1,0-.2,0s-.2,0-.2,0l-1.9-2.3-1,1v1.1c0,.1-.1.2-.3.2s-.2-.1-.2-.2v-6.6Z"/>
    <path class="cls-1" d="M157.6,45.3c0-.1.1-.2.2-.2s.3.1.3.2v.2c0,.1-.1.3-.3.3s-.2-.1-.2-.3v-.2ZM157.6,46.9c0-.1.1-.2.2-.2s.3.1.3.2v4.5c0,.1-.1.2-.3.2s-.2-.1-.2-.2v-4.5Z"/>
    <path class="cls-1" d="M164.1,48.7c0-.8-.7-1.5-1.5-1.5s-1.5.7-1.5,1.5v2.7h0c0,0,0,.1,0,.2,0,0-.1,0-.2,0h0c0,0-.1,0-.2-.1,0,0,0,0,0,0s0,0,0,0h0v-2.8h0v-1.8c0-.1.1-.2.2-.2s.2.1.2.2v.5c.4-.4.9-.7,1.5-.7,1.1,0,2,.9,2,2v2.7c0,.1-.1.2-.2.2s-.2-.1-.2-.2v-2.7Z"/>
    <path class="cls-1" d="M171.2,51.3c0,1.3-1,2.3-2.3,2.3s-.7,0-1-.2c-.1,0-.2-.2-.1-.3,0-.1.2-.2.3-.1.3.1.5.2.8.2,1,0,1.9-.8,1.9-1.8v-.6c-.4.6-1.1,1-1.9,1-1.3,0-2.3-1.1-2.3-2.5s1-2.5,2.3-2.5,1.4.4,1.9,1v-.7c0-.1.1-.2.3-.2s.2.1.2.2v4.3ZM170.7,49.2c0-1.1-.8-2-1.9-2s-1.8.9-1.8,2,.8,2,1.8,2,1.9-.9,1.9-2Z"/>
  </g>
  <path class="cls-5" d="M21.9,0C10.3.2.8,9.5.3,21c-.2,5.7,1.8,11,5.2,15.1l12.8,15.1c2,2.4,5.7,2.4,7.7,0l12.9-15.2c3.2-3.8,5.2-8.8,5.2-14.1,0-12.2-10-22.1-22.2-21.9ZM22.2,18.6c-3,0-5.4-2.4-5.4-5.4s2.4-5.4,5.4-5.4,5.4,2.4,5.4,5.4-2.4,5.4-5.4,5.4Z"/>
  <g>
    <g class="cls-7">
      <path class="cls-3" d="M24.4,29c-2.7-4.2-11.1-7.2-16.7-6.6-8.2.8-10.9,7.5-14.5,13.7v10.9h30.4l.8-18Z"/>
    </g>
    <g class="cls-8">
      <path class="cls-6" d="M6.1,37.3c6.3.3,13.5-6.6,19.3-9.1,6.6-2.8,13.5-2.3,20.7-2.3v21H6.1s0-9.6,0-9.6Z"/>
    </g>
    <g class="cls-9">
      <path class="cls-4" d="M40.1,38.1c-3.9-1.1-6-3.2-10.5-3.2s-7.8,1.7-11.2,3.6c-8.5,4.8-13.6,12.5-24.3,13.7v7.8h46v-21.9Z"/>
    </g>
  </g>
</svg>