<?xml version="1.0" encoding="UTF-8"?>
<svg id="Livello_1" data-name="Livello 1" xmlns="http://www.w3.org/2000/svg" xmlns:xlink="http://www.w3.org/1999/xlink" version="1.1" viewBox="0 0 44 55.2">
  <defs>
    <style>
      .cls-1 {
        clip-path: url(#clippath);
      }

      .cls-2 {
        fill: none;
      }

      .cls-2, .cls-3, .cls-4, .cls-5, .cls-6 {
        stroke-width: 0px;
      }

      .cls-3 {
        fill: #92c29f;
      }

      .cls-4 {
        fill: #306144;
      }

      .cls-5 {
        fill: #d7e9da;
      }

      .cls-7 {
        clip-path: url(#clippath-1);
      }

      .cls-8 {
        clip-path: url(#clippath-2);
      }

      .cls-6 {
        fill: #469a5b;
      }
    </style>
    <clipPath id="clippath">
      <path class="cls-2" d="M21.7,1.5C10.1,1.7.6,11,0,22.5c-.2,5.7,1.8,11,5.2,15.1l12.8,15.1c2,2.4,5.7,2.4,7.7,0l12.8-15.1c3.2-3.8,5.2-8.8,5.2-14.1.1-12.3-9.9-22.2-22.1-22Z"/>
    </clipPath>
    <clipPath id="clippath-1">
      <path class="cls-2" d="M21.7,1.5C10.1,1.7.6,11,0,22.5c-.2,5.7,1.8,11,5.2,15.1l12.8,15.1c2,2.4,5.7,2.4,7.7,0l12.8-15.1c3.2-3.8,5.2-8.8,5.2-14.1.1-12.3-9.9-22.2-22.1-22Z"/>
    </clipPath>
    <clipPath id="clippath-2">
      <path class="cls-2" d="M21.7,1.5C10.1,1.7.6,11,0,22.5c-.2,5.7,1.8,11,5.2,15.1l12.8,15.1c2,2.4,5.7,2.4,7.7,0l12.8-15.1c3.2-3.8,5.2-8.8,5.2-14.1.1-12.3-9.9-22.2-22.1-22Z"/>
    </clipPath>
  </defs>
  <path class="cls-5" d="M21.6,1.5C10,1.7.5,11,0,22.5c-.2,5.7,1.8,11,5.2,15.1l12.8,15.1c2,2.4,5.7,2.4,7.7,0l12.9-15.2c3.2-3.8,5.2-8.8,5.2-14.1,0-12.2-10-22.1-22.2-21.9ZM21.9,20.1c-3,0-5.4-2.4-5.4-5.4s2.4-5.4,5.4-5.4,5.4,2.4,5.4,5.4-2.4,5.4-5.4,5.4Z"/>
  <g>
    <g class="cls-1">
      <path class="cls-3" d="M24.2,30.5c-2.7-4.2-11.1-7.2-16.7-6.6-8.2.8-10.9,7.5-14.5,13.7v10.9h30.4l.8-18Z"/>
    </g>
    <g class="cls-7">
      <path class="cls-6" d="M5.9,38.8c6.3.3,13.5-6.6,19.3-9.1,6.6-2.8,13.5-2.3,20.7-2.3v21H5.9s0-9.6,0-9.6Z"/>
    </g>
    <g class="cls-8">
      <path class="cls-4" d="M39.9,39.6c-3.9-1.1-6-3.2-10.5-3.2s-7.8,1.7-11.2,3.6c-8.5,4.8-13.6,12.5-24.3,13.7v7.8h46v-21.9Z"/>
    </g>
  </g>
</svg>